# xmcd
# 
# Track frame offsets:
#     150
#     21755
#     50087
#     65141
#     76488
#     94238
#     108141
#     144948
#     168698
#     194692
#     215534
#     247722
#     266262
#     272375
# 
# Disc length: 3932
# 
# Revision: 1
# Processed by: cddbd v1.5.2PL0 Copyright (c) Steve Scherf et al.
# Submitted via: fre:ac v1.0.31
# 
DISCID=c40f5a0e
DTITLE=Derek and The Dominos - The Layla Sessions 30th Anniversary Edition Disc 3
DYEAR=0
DGENRE=
TTITLE0=Why Does Love Got To Be So Sad(Take 1)
TTITLE1=Keep On Growing
TTITLE2=I Looked Away(Take 1)
TTITLE3=Tender Love
TTITLE4=Tell The Truth
TTITLE5=I Looked Away(Take 2)
TTITLE6=Jam Ⅰ(Alternate Take)
TTITLE7=Bell Bottom Blues(Take 1)
TTITLE8=Anyday
TTITLE9=Nobody Knows You When You're Down And Out
TTITLE10=Have You Ever Loved A Woman(Take 1)
TTITLE11=Have You Ever Loved A Woman(Take 2)
TTITLE12=Bell Bottom Blues(Take 2)
TTITLE13=Why Does Love Got To Be So Sad(Take 2)
EXTD=
EXTT0=
EXTT1=
EXTT2=
EXTT3=
EXTT4=
EXTT5=
EXTT6=
EXTT7=
EXTT8=
EXTT9=
EXTT10=
EXTT11=
EXTT12=
EXTT13=
PLAYORDER=
